<?xml version="1.0" standalone="no"?>
<!DOCTYPE svg PUBLIC "-//W3C//DTD SVG 20010904//EN"
 "http://www.w3.org/TR/2001/REC-SVG-20010904/DTD/svg10.dtd">
<svg version="1.0" xmlns="http://www.w3.org/2000/svg"
 width="743.000000pt" height="743.000000pt" viewBox="0 0 743.000000 743.000000"
 preserveAspectRatio="xMidYMid meet">
<metadata>
Created by potrace 1.14, written by Peter Selinger 2001-2017
</metadata>
<g transform="translate(0.000000,743.000000) scale(0.100000,-0.100000)"
fill="#000000" stroke="none">
<path d="M3014 6771 c-3 -3 -28 -5 -57 -5 -28 -1 -56 -4 -62 -7 -5 -3 -27 -5
-47 -4 -21 1 -38 -1 -38 -6 0 -4 -15 -7 -34 -7 -19 0 -40 -4 -47 -8 -7 -4 -22
-9 -33 -10 -47 -7 -72 -11 -86 -17 -25 -9 -74 -20 -82 -19 -5 1 -8 -2 -8 -8 0
-6 -3 -9 -7 -9 -16 3 -73 -14 -73 -21 0 -5 -9 -6 -20 -3 -12 3 -20 0 -20 -7 0
-7 -6 -10 -14 -7 -8 3 -20 0 -26 -8 -9 -11 -53 -28 -62 -24 -7 2 -258 -127
-306 -158 -29 -18 -57 -33 -62 -33 -6 0 -10 -4 -10 -10 0 -5 -7 -10 -15 -10
-8 0 -15 -5 -15 -11 0 -5 -4 -7 -10 -4 -5 3 -10 2 -10 -4 0 -5 -9 -13 -20 -16
-11 -3 -26 -13 -34 -21 -20 -19 -105 -84 -111 -84 -11 0 -244 -208 -293 -262
-13 -14 -47 -50 -75 -80 -29 -30 -65 -71 -82 -92 -16 -21 -40 -50 -52 -65 -13
-14 -23 -32 -23 -39 0 -7 -4 -10 -10 -7 -5 3 -10 2 -10 -3 0 -6 -16 -29 -35
-52 -20 -24 -33 -45 -31 -48 3 -3 -2 -12 -12 -21 -10 -9 -29 -35 -42 -58 -13
-24 -26 -43 -30 -43 -3 0 -21 -30 -40 -67 -19 -37 -41 -74 -48 -81 -6 -7 -12
-19 -12 -26 0 -8 -7 -19 -15 -26 -8 -7 -13 -16 -10 -20 3 -5 1 -11 -5 -15 -8
-5 -60 -108 -60 -119 0 -2 -10 -25 -22 -52 -12 -27 -23 -51 -23 -54 0 -3 -6
-15 -13 -27 -7 -13 -10 -23 -6 -23 3 0 1 -6 -5 -13 -6 -8 -8 -17 -4 -20 3 -4
1 -7 -6 -7 -7 0 -10 -4 -7 -8 3 -5 -1 -20 -9 -35 -8 -15 -12 -27 -9 -27 2 0
-2 -13 -11 -30 -9 -16 -13 -30 -9 -30 4 0 1 -7 -6 -15 -7 -8 -10 -15 -7 -15 3
0 -1 -16 -9 -35 -8 -19 -14 -37 -14 -40 1 -8 -11 -58 -17 -75 -3 -8 -7 -22 -8
-30 -1 -8 -5 -26 -8 -40 -14 -62 -29 -138 -32 -165 -3 -16 -6 -43 -9 -60 -2
-16 -8 -75 -12 -130 -12 -138 -11 -3375 0 -3400 5 -11 8 -23 8 -27 -1 -5 3 -8
9 -8 5 0 8 -4 4 -9 -3 -5 5 -17 17 -25 12 -9 18 -16 13 -16 -6 0 15 -15 45
-34 l55 -33 2983 0 c1826 -1 2982 3 2982 9 0 5 6 8 13 6 20 -4 70 29 97 63 62
80 59 -10 59 1375 0 694 -2 1264 -6 1268 -3 3 -11 2 -17 -3 -6 -5 -15 -10 -21
-11 -14 -3 -43 -15 -90 -35 -22 -10 -42 -19 -45 -19 -12 -3 -125 -61 -130 -66
-7 -9 -43 -24 -52 -22 -5 1 -8 -3 -8 -8 0 -6 -7 -10 -15 -10 -8 0 -15 -4 -15
-10 0 -5 -7 -10 -15 -10 -8 0 -15 -4 -15 -10 0 -5 -6 -10 -13 -10 -7 0 -23 -9
-35 -20 -12 -11 -24 -20 -28 -20 -3 0 -60 -40 -126 -90 -65 -49 -121 -90 -124
-90 -2 0 -12 -8 -22 -18 -20 -18 -39 -34 -117 -97 -28 -22 -55 -44 -61 -50 -6
-5 -40 -35 -75 -65 -35 -30 -71 -63 -81 -72 -10 -10 -18 -15 -18 -11 0 4 -6
-2 -14 -13 -8 -10 -18 -19 -23 -19 -5 0 -18 -9 -30 -20 -25 -23 -233 -131
-245 -128 -4 2 -8 -2 -8 -7 0 -6 -9 -10 -20 -10 -11 0 -20 -4 -20 -10 0 -5 -3
-9 -7 -9 -5 1 -11 0 -15 -1 -5 -1 -12 -4 -18 -5 -5 -1 -12 -4 -15 -5 -3 -1 -8
-3 -12 -5 -5 -1 -16 -5 -25 -8 -10 -4 -26 -10 -35 -14 -10 -3 -20 -7 -23 -8
-20 -6 -96 -29 -102 -31 -5 -1 -9 -2 -10 -4 -3 -2 -21 -6 -63 -15 -56 -12 -60
-13 -65 -16 -3 -1 -9 -3 -15 -4 -5 -2 -12 -4 -15 -5 -6 -2 -64 -9 -97 -12 -13
-1 -23 -4 -23 -7 0 -6 -35 -10 -117 -13 -24 -1 -43 -4 -43 -7 0 -3 -19 -6 -43
-5 -23 0 -46 -2 -52 -5 -18 -10 -55 -7 -55 4 0 6 -3 6 -8 -1 -7 -12 -372 -17
-372 -5 0 3 -17 7 -38 8 -49 3 -85 9 -155 26 -57 14 -65 16 -69 18 -2 0 -14 3
-28 6 -14 2 -29 6 -35 7 -5 1 -20 7 -32 14 -12 7 -29 12 -37 12 -9 0 -16 5
-16 12 0 6 -3 8 -6 5 -4 -3 -16 -1 -28 5 -11 7 -23 13 -26 13 -8 1 -165 79
-170 85 -7 7 -42 29 -60 37 -8 4 -22 14 -30 22 -8 9 -27 23 -42 31 -56 32
-175 142 -277 257 -69 79 -96 113 -86 113 3 0 -5 11 -19 23 -14 13 -23 27 -19
30 3 4 1 7 -5 7 -7 0 -12 6 -12 14 0 7 -7 20 -16 27 -16 13 -39 58 -36 72 1 4
-2 7 -7 7 -5 0 -12 11 -15 25 -4 14 -11 25 -16 25 -5 0 -7 6 -4 13 3 8 -2 20
-11 27 -8 7 -15 21 -15 31 0 11 -5 19 -12 19 -6 0 -9 3 -6 6 3 3 -5 32 -18 63
-13 32 -26 69 -28 82 -3 13 -10 44 -16 69 -14 62 -20 92 -23 115 -1 11 -6 23
-12 27 -6 5 -5 8 4 8 11 0 11 3 1 15 -7 8 -10 21 -7 29 3 8 3 17 0 20 -4 3 -7
46 -9 96 -1 49 -5 94 -8 99 -4 5 -3 12 2 15 4 2 8 41 7 85 0 45 3 81 6 81 6 0
8 8 12 60 1 19 5 40 8 45 4 6 5 20 4 33 -1 12 1 22 5 22 4 0 7 6 8 13 0 6 3
26 7 42 3 17 8 41 10 53 2 13 8 29 12 35 5 7 15 30 22 52 8 22 18 51 24 65 6
14 11 27 12 30 3 11 60 125 65 130 3 3 11 17 19 33 8 15 18 27 23 27 5 0 6 5
3 10 -3 6 -1 10 4 10 6 0 10 4 9 9 -3 10 54 90 65 91 4 0 7 7 7 15 0 8 5 15
10 15 13 0 60 -30 80 -50 19 -20 130 -82 130 -73 0 4 5 2 12 -5 7 -7 24 -12
39 -12 15 0 29 -5 31 -10 2 -6 32 -12 68 -13 36 -1 68 -6 72 -11 4 -6 12 -5
21 3 8 6 26 10 40 7 14 -2 36 2 51 9 14 8 28 10 31 5 3 -5 21 0 41 12 19 11
38 18 41 14 3 -3 13 3 20 14 8 11 19 18 24 15 5 -4 9 -3 9 2 0 4 12 14 28 21
34 15 133 108 124 117 -4 3 1 3 11 -1 9 -3 17 -10 17 -16 0 -5 5 -6 10 -3 6 3
10 0 10 -7 0 -7 14 -22 30 -33 16 -11 30 -26 30 -32 0 -7 9 -13 21 -13 11 0
17 -4 14 -10 -3 -6 5 -10 18 -10 14 0 28 -7 31 -16 3 -8 10 -12 16 -9 6 3 13
0 16 -9 3 -8 12 -12 20 -9 8 3 14 -1 14 -8 0 -7 3 -9 7 -6 3 4 17 0 30 -8 13
-9 23 -11 23 -5 0 7 8 7 22 -1 13 -7 43 -13 68 -14 25 -2 45 -3 45 -5 0 -1 8
-3 18 -5 9 -2 17 0 17 5 0 5 19 8 43 8 49 -1 107 11 107 22 0 5 9 6 20 3 11
-3 20 0 20 6 0 6 7 11 15 11 8 0 15 4 15 8 0 4 10 9 22 9 13 1 24 7 26 13 2 5
8 10 13 10 11 0 39 23 101 82 27 25 53 47 56 48 4 1 6 7 4 14 -1 7 4 19 12 25
16 13 26 6 76 -58 14 -17 30 -31 37 -31 7 0 13 -5 13 -11 0 -11 26 -40 35 -39
3 0 19 -10 36 -22 17 -13 34 -23 37 -23 4 -1 23 -9 42 -20 37 -20 54 -26 83
-28 9 -1 17 -4 17 -7 0 -7 5 -8 75 -13 28 -2 56 -6 63 -11 7 -4 18 -4 25 2 18
13 107 13 108 -1 4 -35 20 -77 31 -77 5 0 7 -4 4 -8 -9 -14 54 -81 95 -102 21
-11 39 -18 39 -15 0 3 10 0 23 -7 26 -14 57 -18 57 -7 0 9 20 6 38 -4 7 -5 14
-2 18 7 3 9 10 14 14 11 13 -8 71 26 63 37 -4 7 0 9 10 5 10 -3 17 -2 17 3 0
5 11 21 25 36 14 15 25 33 25 40 0 8 5 14 11 14 6 0 9 7 6 15 -4 8 -2 17 4 21
6 3 8 12 5 20 -3 7 -1 16 4 19 6 3 5 17 -2 33 -5 15 -11 34 -13 42 -5 32 -18
60 -26 60 -5 0 -8 3 -8 8 3 19 -2 33 -10 27 -5 -3 -16 3 -23 13 -7 10 -23 25
-34 33 -21 14 -21 16 -6 62 8 26 19 47 23 47 4 0 11 16 15 35 3 19 10 35 16
35 5 0 7 4 3 9 -3 5 -1 12 4 15 5 4 8 17 6 31 -1 14 2 25 7 25 5 0 8 22 7 48
-1 26 1 53 5 60 4 7 4 12 -1 12 -4 0 -9 21 -9 48 -2 65 -7 92 -17 92 -4 0 -6
4 -3 8 4 8 -16 61 -35 92 -5 8 -12 23 -15 33 -4 9 -10 17 -15 17 -5 0 -6 6 -3
14 3 9 -3 17 -15 21 -12 3 -21 13 -21 21 0 8 -4 14 -10 14 -5 0 -10 7 -10 15
0 8 -3 15 -7 15 -5 0 -30 20 -58 45 -27 25 -60 48 -72 51 -13 3 -23 10 -23 16
0 5 -4 6 -10 3 -5 -3 -10 -1 -10 5 0 6 -4 9 -9 5 -5 -3 -12 -1 -16 5 -3 5 -15
10 -26 10 -10 0 -19 4 -19 8 0 8 -9 10 -70 16 -19 2 -42 7 -50 10 -23 9 -130
12 -132 4 -2 -4 -16 -9 -33 -10 -16 -1 -35 -6 -42 -11 -7 -5 -17 -6 -23 -2 -5
3 -10 1 -10 -4 0 -6 -8 -11 -17 -11 -11 0 -25 16 -36 40 -10 22 -31 53 -46 69
-21 22 -27 37 -24 56 3 14 9 25 14 25 5 0 6 7 3 15 -4 8 -2 15 3 15 10 0 9
104 -2 138 -4 12 -12 22 -17 22 -5 0 -7 4 -4 9 14 22 -111 130 -134 116 -4 -3
-10 0 -12 7 -6 16 -104 13 -144 -3 -16 -7 -34 -13 -41 -15 -10 -2 -80 40 -93
56 -3 3 -23 17 -45 30 -22 13 -42 27 -45 30 -11 14 -189 110 -203 110 -8 0
-17 3 -19 8 -2 6 -69 41 -88 47 -5 2 -43 17 -95 38 -16 6 -32 12 -35 13 -11 2
-46 16 -62 25 -10 5 -29 9 -43 9 -14 0 -25 5 -25 10 0 6 -13 10 -28 10 -16 0
-32 3 -36 7 -3 4 -12 8 -19 9 -16 3 -54 11 -99 23 -20 5 -39 6 -42 3 -4 -3 -6
-1 -6 5 0 11 -7 13 -72 16 -27 1 -48 5 -48 9 0 6 -36 11 -160 23 -115 11 -143
14 -148 19 -3 3 -11 1 -18 -5 -8 -7 -14 -7 -19 1 -3 5 -11 10 -16 10 -6 0 -8
-4 -5 -8 2 -4 -4 -8 -14 -8 -10 0 -16 4 -14 8 3 4 -4 8 -16 8 -14 0 -19 -4
-14 -12 6 -10 5 -10 -8 0 -14 11 -163 14 -174 3z"/>
<path d="M6321 5557 c-6 -6 -11 -8 -11 -3 0 4 -12 -1 -27 -12 -16 -11 -30 -19
-33 -19 -3 1 -20 -13 -38 -31 -18 -18 -30 -32 -27 -32 3 0 -5 -19 -17 -43 -42
-78 -25 -168 47 -258 22 -27 99 -71 109 -62 3 3 11 1 18 -4 16 -13 98 -13 98
-1 0 5 4 7 8 4 23 -14 170 104 156 126 -3 4 0 8 6 8 6 0 10 8 9 18 -1 9 2 28
8 41 11 28 -1 121 -18 131 -6 4 -9 10 -7 13 1 3 -7 17 -19 31 -13 14 -20 26
-16 26 4 0 -4 8 -17 17 -14 10 -27 16 -29 14 -2 -1 -8 4 -13 13 -5 9 -13 14
-18 11 -5 -3 -11 -1 -15 5 -4 6 -11 8 -16 5 -5 -4 -9 -2 -9 2 0 13 -116 13
-129 0z"/>
<path d="M4084 4556 c-80 -33 -124 -97 -131 -191 -4 -55 -20 -113 -36 -132 -6
-9 -6 -13 0 -13 6 0 10 -50 10 -125 0 -69 -4 -125 -9 -125 -4 0 -3 -11 2 -25
7 -18 6 -25 -3 -27 -14 -1 -30 -5 -37 -8 -3 -1 -61 -3 -130 -5 -83 -2 -130 1
-139 9 -12 9 -13 8 -6 -3 6 -11 3 -13 -13 -9 -12 3 -23 1 -26 -6 -3 -8 -5 -8
-5 0 -1 8 -14 9 -40 4 -21 -4 -51 -6 -65 -4 -18 2 -24 -1 -20 -9 5 -9 4 -9 -5
-1 -28 26 -171 -86 -157 -122 3 -8 2 -14 -3 -14 -10 0 -10 -5 -14 -120 -2 -52
-1 -99 2 -105 3 -5 6 -28 7 -50 3 -63 11 -126 17 -132 3 -3 2 -16 -3 -29 -6
-14 -6 -26 0 -29 7 -4 6 -13 0 -25 -7 -13 -6 -20 3 -23 8 -4 9 -6 0 -6 -8 -1
-9 -10 -2 -33 6 -18 11 -39 13 -45 1 -7 11 -22 22 -33 10 -11 28 -29 38 -40
11 -11 38 -25 60 -31 23 -6 48 -14 56 -17 8 -3 26 -4 40 -3 33 2 36 2 98 -2
29 -2 55 1 58 5 3 5 11 5 17 1 7 -4 62 -9 122 -10 61 0 115 -2 121 -2 14 -1
25 -51 12 -51 -5 0 -6 -5 -3 -11 4 -5 9 -97 12 -202 6 -239 6 -254 15 -262 4
-4 4 -13 1 -21 -3 -8 0 -14 6 -14 6 0 11 -7 11 -16 0 -19 50 -78 71 -82 8 -2
16 -8 17 -13 2 -5 12 -9 23 -9 10 0 19 -4 19 -10 0 -6 9 -6 26 0 15 6 23 6 19
1 -6 -11 41 -8 52 2 3 4 12 2 20 -4 10 -9 17 -8 28 1 12 10 15 10 15 0 0 -8 6
-9 18 -5 9 4 42 9 72 10 30 2 55 4 55 5 0 1 15 3 32 4 18 1 36 5 39 9 4 4 13
2 21 -4 9 -8 13 -8 13 0 0 7 8 8 25 1 14 -5 25 -6 25 -1 0 9 31 8 48 -3 6 -4
12 -3 12 3 0 5 8 8 18 6 9 -1 23 2 30 8 6 5 12 6 12 2 0 -9 71 43 87 64 6 9 9
19 7 23 -3 5 -1 8 5 8 9 0 16 24 24 80 2 8 6 21 10 28 5 6 4 12 -1 12 -4 0 -8
16 -8 35 1 19 4 35 7 35 6 0 7 6 8 237 1 136 2 142 21 138 11 -2 20 1 20 6 0
6 5 7 13 2 6 -4 23 -9 37 -9 14 -1 25 -3 25 -4 0 0 55 -2 123 -3 67 -1 122 1
122 4 0 4 15 5 33 4 17 -2 38 2 44 7 7 6 20 8 28 4 8 -3 15 -1 15 5 0 6 9 8
21 4 14 -5 19 -3 15 3 -3 6 8 15 24 21 17 5 30 15 30 21 0 6 4 9 8 6 5 -3 15
6 22 19 7 13 17 22 22 19 4 -3 8 -2 9 3 2 30 11 58 21 70 6 7 13 39 15 71 8
118 8 454 1 458 -5 3 -6 9 -3 14 3 5 1 11 -5 15 -6 4 -7 11 -4 17 4 7 2 8 -4
4 -7 -4 -14 3 -18 18 -7 31 -49 67 -95 84 -42 14 -52 15 -45 3 3 -5 -11 -3
-32 4 -28 10 -39 10 -44 2 -5 -8 -8 -8 -8 -1 0 6 -14 10 -30 9 -17 -1 -32 1
-34 4 -2 3 -28 6 -58 6 -29 0 -56 4 -60 10 -5 6 -8 6 -8 -2 0 -8 -9 -9 -27 -5
-16 4 -41 7 -58 6 -16 -1 -38 3 -49 8 -13 7 -16 7 -12 -1 4 -6 3 -11 -3 -11
-5 0 -12 4 -15 9 -3 4 -17 7 -31 6 -24 -3 -25 -1 -21 38 2 23 5 42 6 42 1 0 3
17 4 38 0 20 -3 37 -7 37 -5 0 -5 6 0 13 10 15 10 180 0 188 -4 3 -8 24 -10
47 -1 23 -5 42 -9 42 -5 0 -8 7 -8 15 0 32 -84 140 -101 129 -5 -3 -9 -1 -9 4
0 17 -79 35 -155 36 -27 1 -53 6 -57 11 -5 6 -8 6 -8 -1 0 -6 -7 -11 -15 -11
-8 0 -15 4 -15 9 0 5 -9 4 -20 -2 -11 -6 -20 -7 -20 -2 0 5 -62 9 -139 8 -114
0 -147 -4 -187 -20z"/>
<path d="M6347 4254 c-5 -5 -14 -9 -20 -10 -7 0 -19 -2 -27 -2 -8 -1 -27 -13
-42 -27 -15 -14 -30 -25 -33 -25 -4 0 -13 -7 -21 -15 -9 -8 -12 -15 -8 -15 4
0 1 -8 -7 -17 -32 -39 -43 -76 -41 -136 1 -34 6 -63 12 -65 6 -2 8 -8 4 -13
-3 -5 0 -9 6 -9 6 0 8 -4 5 -10 -3 -5 -1 -10 4 -10 6 0 11 -6 11 -13 0 -12 34
-47 89 -92 16 -13 21 -15 16 -5 -8 13 -6 13 8 1 34 -27 209 -16 181 12 -4 4 3
4 15 2 12 -2 19 0 17 4 -3 4 5 13 19 19 13 6 32 24 42 39 10 15 21 30 25 33 4
3 14 30 21 60 13 48 12 61 -2 112 -9 32 -24 66 -33 77 -9 11 -13 23 -10 27 4
4 2 4 -5 1 -6 -4 -20 3 -30 16 -18 22 -50 42 -65 39 -5 -1 -8 2 -8 6 0 5 -6 9
-12 10 -7 1 -33 4 -58 8 -25 3 -49 2 -53 -2z"/>
</g>
</svg>
